<mxfile host="65bd71144e" pages="3">
    <diagram id="PXbgpaWx_zOb6CSULYio" name="LeanCanvas">
        <mxGraphModel dx="1342" dy="499" grid="1" gridSize="10" guides="1" tooltips="1" connect="1" arrows="1" fold="1" page="1" pageScale="1" pageWidth="1169" pageHeight="827" math="0" shadow="0">
            <root>
                <mxCell id="Wdu5Wqdw0A0nMoDMASuV-0"/>
                <mxCell id="Wdu5Wqdw0A0nMoDMASuV-1" parent="Wdu5Wqdw0A0nMoDMASuV-0"/>
                <mxCell id="ozSw9ZhxZVdoF7WeQp9g-0" value="" style="rounded=0;whiteSpace=wrap;html=1;shadow=0;labelBackgroundColor=none;strokeColor=none;strokeWidth=3;fillColor=#e8edf0;fontSize=60;fontColor=#2F5B7C;align=left;" parent="Wdu5Wqdw0A0nMoDMASuV-1" vertex="1">
                    <mxGeometry x="20" y="20" width="2250" height="1598" as="geometry"/>
                </mxCell>
                <mxCell id="ozSw9ZhxZVdoF7WeQp9g-1" value="&lt;div style=&quot;font-size: 26px&quot;&gt;圧倒的な優位性&lt;/div&gt;&lt;div&gt;&lt;br&gt;&lt;/div&gt;&lt;div&gt;・決済手段の多様性への対応&lt;/div&gt;&lt;div&gt;・負債管理を含む、より生々しい家計の可視化&lt;/div&gt;&lt;div&gt;・家計情報の入力の分担&lt;/div&gt;&lt;div&gt;&lt;br&gt;&lt;/div&gt;" style="rounded=0;whiteSpace=wrap;html=1;shadow=0;labelBackgroundColor=none;strokeColor=#e8edf0;strokeWidth=5;fillColor=#ffffff;fontSize=12;fontColor=#2F5B7C;align=left;verticalAlign=top;spacing=30;" parent="Wdu5Wqdw0A0nMoDMASuV-1" vertex="1">
                    <mxGeometry x="1360" y="208" width="420" height="450" as="geometry"/>
                </mxCell>
                <mxCell id="ozSw9ZhxZVdoF7WeQp9g-2" value="&lt;font&gt;&lt;span style=&quot;font-size: 26px&quot;&gt;課題&lt;/span&gt;&lt;/font&gt;&lt;font style=&quot;font-size: 12px&quot;&gt;&lt;br&gt;&lt;br&gt;○現在以降の任意の時点での支払い能力を把握できない。&lt;br&gt;　⇒・適切な支出、投資の判断が下せない&lt;br&gt;&amp;nbsp; &amp;nbsp; &amp;nbsp; &amp;nbsp;・知らない間に債務超過に陥る&lt;br&gt;　　・必要なタイミングで必要な支出ができず、チャンス逃す&lt;br&gt;&lt;br&gt;○決済手段の多様化に対応した支出管理&lt;br&gt;　⇒・本来負債増となる支出も単なる支出としてカウントされ&lt;br&gt;　　　知らない間に債務超過に陥る&lt;br&gt;&lt;br&gt;○家族全員が共通の家計情報をもとに日々の支出、&lt;br&gt;　投資判断を下せない&lt;br&gt;　⇒・頑張りが無駄になる&lt;br&gt;&lt;/font&gt;" style="rounded=0;whiteSpace=wrap;html=1;shadow=0;labelBackgroundColor=none;strokeColor=#e8edf0;strokeWidth=5;fillColor=#ffffff;fontSize=12;fontColor=#2F5B7C;align=left;verticalAlign=top;spacing=30;" parent="Wdu5Wqdw0A0nMoDMASuV-1" vertex="1">
                    <mxGeometry x="100" y="208" width="420" height="900" as="geometry"/>
                </mxCell>
                <mxCell id="ozSw9ZhxZVdoF7WeQp9g-3" value="&lt;font&gt;&lt;span style=&quot;font-size: 26px&quot;&gt;解決法&lt;/span&gt;&lt;br style=&quot;font-size: 12px&quot;&gt;&lt;/font&gt;&lt;font&gt;&lt;br style=&quot;font-size: 12px&quot;&gt;&lt;div&gt;・従来の収支記録に加え、資産、負債へのお金の流れを&lt;/div&gt;&lt;div&gt;　記録、&lt;span&gt;可視化&lt;/span&gt;&lt;/div&gt;&lt;div&gt;&lt;span&gt;&lt;br&gt;&lt;/span&gt;&lt;/div&gt;&lt;div&gt;&lt;span&gt;・&lt;/span&gt;&lt;span&gt;現時点の支払い能力を「Saifu」として管理する。&lt;/span&gt;&lt;/div&gt;&lt;div&gt;&lt;span&gt;　Saifuには、現金、普通預金、投資用口座、電子マネーを含む&lt;/span&gt;&lt;/div&gt;&lt;div&gt;&lt;span&gt;&lt;br&gt;&lt;/span&gt;&lt;/div&gt;&lt;div&gt;・アカウントを世帯単位に作成、アカウント内のメンバーは&lt;/div&gt;&lt;div&gt;　共通のダッシュボードを参照する&lt;/div&gt;&lt;div&gt;&lt;span&gt;&lt;br&gt;&lt;/span&gt;&lt;/div&gt;&lt;div&gt;&lt;span&gt;&lt;br&gt;&lt;/span&gt;&lt;/div&gt;&lt;/font&gt;&lt;div&gt;&lt;br&gt;&lt;/div&gt;" style="rounded=0;whiteSpace=wrap;html=1;shadow=0;labelBackgroundColor=none;strokeColor=#e8edf0;strokeWidth=5;fillColor=#ffffff;fontSize=12;fontColor=#2F5B7C;align=left;verticalAlign=top;spacing=30;" parent="Wdu5Wqdw0A0nMoDMASuV-1" vertex="1">
                    <mxGeometry x="520" y="208" width="420" height="450" as="geometry"/>
                </mxCell>
                <mxCell id="ozSw9ZhxZVdoF7WeQp9g-4" value="&lt;div&gt;&lt;span style=&quot;font-size: 26px&quot;&gt;主要指標&lt;/span&gt;&lt;/div&gt;&lt;div&gt;&lt;br&gt;&lt;/div&gt;&lt;div&gt;ユーザー離脱率&lt;/div&gt;&lt;div&gt;&lt;br&gt;&lt;/div&gt;" style="rounded=0;whiteSpace=wrap;html=1;shadow=0;labelBackgroundColor=none;strokeColor=#e8edf0;strokeWidth=5;fillColor=#ffffff;fontSize=12;fontColor=#2F5B7C;align=left;verticalAlign=top;spacing=30;" parent="Wdu5Wqdw0A0nMoDMASuV-1" vertex="1">
                    <mxGeometry x="520" y="658" width="420" height="450" as="geometry"/>
                </mxCell>
                <mxCell id="ozSw9ZhxZVdoF7WeQp9g-5" value="&lt;div style=&quot;font-size: 26px&quot;&gt;独自の価値提案&lt;/div&gt;&lt;div&gt;&lt;br&gt;&lt;/div&gt;&lt;div&gt;真の家計の実力を世帯全体で共有、&lt;/div&gt;&lt;div&gt;世帯全体の幸福感を最大にする家計運営の実現をお手伝い&lt;/div&gt;&lt;div&gt;&lt;br&gt;&lt;/div&gt;&lt;div&gt;真の家計の実力とは、&lt;/div&gt;&lt;div&gt;「必要なとき、必要な支払いを可能にする能力」&lt;/div&gt;&lt;div&gt;&lt;br&gt;&lt;/div&gt;" style="rounded=0;whiteSpace=wrap;html=1;shadow=0;labelBackgroundColor=none;strokeColor=#e8edf0;strokeWidth=5;fillColor=#ffffff;fontSize=12;fontColor=#2F5B7C;align=left;verticalAlign=top;spacing=30;" parent="Wdu5Wqdw0A0nMoDMASuV-1" vertex="1">
                    <mxGeometry x="940" y="208" width="420" height="900" as="geometry"/>
                </mxCell>
                <mxCell id="ozSw9ZhxZVdoF7WeQp9g-6" value="&lt;div&gt;&lt;span style=&quot;font-size: 26px&quot;&gt;顧客セグメント&lt;/span&gt;&lt;/div&gt;&lt;div&gt;&lt;br&gt;&lt;/div&gt;&lt;div&gt;&lt;div&gt;・現役世代（20代〜50代）&lt;/div&gt;&lt;div&gt;&lt;br&gt;&lt;/div&gt;&lt;div&gt;・現金以外に、クレジットカード、電子マネー等複数の決済手段を&lt;/div&gt;&lt;div&gt;　使用している&lt;/div&gt;&lt;div&gt;&lt;br&gt;&lt;/div&gt;&lt;div&gt;・IDeco、NISA等で資産形成を行っている&lt;/div&gt;&lt;div&gt;&lt;br&gt;&lt;/div&gt;&lt;div&gt;・家、車等のローン返済、奨学金返済を行っている&lt;/div&gt;&lt;div&gt;&lt;br&gt;&lt;/div&gt;&lt;/div&gt;" style="rounded=0;whiteSpace=wrap;html=1;shadow=0;labelBackgroundColor=none;strokeColor=#e8edf0;strokeWidth=5;fillColor=#ffffff;fontSize=12;fontColor=#2F5B7C;align=left;verticalAlign=top;spacing=30;" parent="Wdu5Wqdw0A0nMoDMASuV-1" vertex="1">
                    <mxGeometry x="1780" y="208" width="420" height="900" as="geometry"/>
                </mxCell>
                <mxCell id="ozSw9ZhxZVdoF7WeQp9g-7" value="&lt;div&gt;&lt;span style=&quot;font-size: 26px&quot;&gt;提供手段&lt;/span&gt;&lt;/div&gt;&lt;div&gt;&lt;br&gt;&lt;/div&gt;&lt;div&gt;・Webブラウザーアプリケーション&lt;/div&gt;&lt;div&gt;　⇒まとまった入力や分析、判断に&lt;/div&gt;&lt;div&gt;&lt;br&gt;&lt;/div&gt;&lt;div&gt;・Android/iOSスマートフォンアプリケーション&lt;/div&gt;&lt;div&gt;　⇒出先で入力、簡単な判断&lt;/div&gt;" style="rounded=0;whiteSpace=wrap;html=1;shadow=0;labelBackgroundColor=none;strokeColor=#e8edf0;strokeWidth=5;fillColor=#ffffff;fontSize=12;fontColor=#2F5B7C;align=left;verticalAlign=top;spacing=30;" parent="Wdu5Wqdw0A0nMoDMASuV-1" vertex="1">
                    <mxGeometry x="1360" y="658" width="420" height="450" as="geometry"/>
                </mxCell>
                <mxCell id="ozSw9ZhxZVdoF7WeQp9g-8" value="&lt;div style=&quot;font-size: 26px&quot;&gt;コスト構造&lt;/div&gt;&lt;div&gt;&lt;br&gt;&lt;/div&gt;&lt;div&gt;What are the most important costs inherent in our business model?&lt;/div&gt;&lt;div&gt;Which Key Resources are most expensive?&lt;/div&gt;&lt;div&gt;Which Key Activities are most expensive?&lt;/div&gt;&lt;div&gt;&lt;br&gt;&lt;/div&gt;&lt;div style=&quot;font-size: 10px&quot;&gt;&lt;font style=&quot;font-size: 10px&quot;&gt;&lt;b&gt;Is your business more&lt;/b&gt;&lt;/font&gt;&lt;/div&gt;&lt;div style=&quot;font-size: 10px&quot;&gt;&lt;font style=&quot;font-size: 10px&quot;&gt;Cost Driven (leanest cost structure, low price value proposition, maximum automation, extensive outsourcing)&lt;/font&gt;&lt;/div&gt;&lt;div style=&quot;font-size: 10px&quot;&gt;&lt;font style=&quot;font-size: 10px&quot;&gt;Value Driven ( focused on value creation, premium value proposition)&lt;/font&gt;&lt;/div&gt;&lt;div style=&quot;font-size: 10px&quot;&gt;&lt;font style=&quot;font-size: 10px&quot;&gt;&lt;br&gt;&lt;/font&gt;&lt;/div&gt;&lt;div style=&quot;font-size: 10px&quot;&gt;&lt;font style=&quot;font-size: 10px&quot;&gt;&lt;b&gt;Sample characteristics&lt;/b&gt;&lt;/font&gt;&lt;/div&gt;&lt;div style=&quot;font-size: 10px&quot;&gt;&lt;font style=&quot;font-size: 10px&quot;&gt;Fixed Costs (salaries, rents, utilities)&lt;/font&gt;&lt;/div&gt;&lt;div style=&quot;font-size: 10px&quot;&gt;&lt;font style=&quot;font-size: 10px&quot;&gt;Variable costs&lt;/font&gt;&lt;/div&gt;&lt;div style=&quot;font-size: 10px&quot;&gt;&lt;font style=&quot;font-size: 10px&quot;&gt;Economies of scale&lt;/font&gt;&lt;/div&gt;&lt;div style=&quot;font-size: 10px&quot;&gt;&lt;font style=&quot;font-size: 10px&quot;&gt;Economies of scope&lt;/font&gt;&lt;/div&gt;" style="rounded=0;whiteSpace=wrap;html=1;shadow=0;labelBackgroundColor=none;strokeColor=#e8edf0;strokeWidth=5;fillColor=#ffffff;fontSize=12;fontColor=#2F5B7C;align=left;verticalAlign=top;spacing=30;" parent="Wdu5Wqdw0A0nMoDMASuV-1" vertex="1">
                    <mxGeometry x="100" y="1108" width="1050" height="330" as="geometry"/>
                </mxCell>
                <mxCell id="ozSw9ZhxZVdoF7WeQp9g-9" value="&lt;div style=&quot;font-size: 26px&quot;&gt;収益の流れ&lt;/div&gt;&lt;div&gt;&lt;br&gt;&lt;/div&gt;&lt;div&gt;For what value are our customers really willing to pay?&lt;/div&gt;&lt;div&gt;For what do they currently pay?&lt;/div&gt;&lt;div&gt;How are they currently paying?&lt;/div&gt;&lt;div&gt;How would they prefer to pay?&lt;/div&gt;&lt;div&gt;How much does each Revenue Stream contribute to overall revenues?&lt;/div&gt;" style="rounded=0;whiteSpace=wrap;html=1;shadow=0;labelBackgroundColor=none;strokeColor=#e8edf0;strokeWidth=5;fillColor=#ffffff;fontSize=12;fontColor=#2F5B7C;align=left;verticalAlign=top;spacing=30;" parent="Wdu5Wqdw0A0nMoDMASuV-1" vertex="1">
                    <mxGeometry x="1150" y="1108" width="1050" height="330" as="geometry"/>
                </mxCell>
                <mxCell id="ozSw9ZhxZVdoF7WeQp9g-10" value="SAIFU Business Model Canvas" style="text;html=1;resizable=0;points=[];autosize=1;align=left;verticalAlign=top;spacingTop=-4;fontSize=60;fontColor=#2F5B7C;" parent="Wdu5Wqdw0A0nMoDMASuV-1" vertex="1">
                    <mxGeometry x="100" y="98" width="850" height="70" as="geometry"/>
                </mxCell>
                <mxCell id="ozSw9ZhxZVdoF7WeQp9g-11" value="" style="html=1;verticalLabelPosition=bottom;labelBackgroundColor=#ffffff;verticalAlign=top;shadow=0;dashed=0;strokeWidth=4;shape=mxgraph.ios7.misc.check;strokeColor=#2F5B7C;fillColor=#ffffff;gradientColor=none;fontSize=12;fontColor=#2F5B7C;align=left;" parent="Wdu5Wqdw0A0nMoDMASuV-1" vertex="1">
                    <mxGeometry x="900" y="240" width="20" height="16" as="geometry"/>
                </mxCell>
                <mxCell id="ozSw9ZhxZVdoF7WeQp9g-12" value="" style="shape=mxgraph.signs.travel.present;html=1;fillColor=#2F5B7C;strokeColor=none;verticalLabelPosition=bottom;verticalAlign=top;align=center;shadow=0;labelBackgroundColor=none;fontSize=12;fontColor=#2F5B7C;" parent="Wdu5Wqdw0A0nMoDMASuV-1" vertex="1">
                    <mxGeometry x="1310" y="223" width="31" height="40" as="geometry"/>
                </mxCell>
                <mxCell id="ozSw9ZhxZVdoF7WeQp9g-13" value="" style="html=1;verticalLabelPosition=bottom;labelBackgroundColor=#ffffff;verticalAlign=top;strokeWidth=3;strokeColor=none;fillColor=#2F5B7C;shadow=0;dashed=0;shape=mxgraph.ios7.icons.heart;fontSize=12;fontColor=#2F5B7C;align=left;" parent="Wdu5Wqdw0A0nMoDMASuV-1" vertex="1">
                    <mxGeometry x="1715.0000000000005" y="230" width="41" height="36" as="geometry"/>
                </mxCell>
                <mxCell id="ozSw9ZhxZVdoF7WeQp9g-14" value="&lt;div style=&quot;font-size: 10px&quot;&gt;&lt;b&gt;Dynamic pricing&lt;/b&gt;&lt;/div&gt;&lt;div style=&quot;font-size: 10px&quot;&gt;Negotiation( bargaining)&lt;/div&gt;&lt;div style=&quot;font-size: 10px&quot;&gt;Yield Management&lt;/div&gt;&lt;div style=&quot;font-size: 10px&quot;&gt;Real-time-Market&lt;/div&gt;" style="text;html=1;resizable=0;points=[];autosize=1;align=left;verticalAlign=top;spacingTop=-4;fontSize=10;fontColor=#2F5B7C;" parent="Wdu5Wqdw0A0nMoDMASuV-1" vertex="1">
                    <mxGeometry x="1504.5" y="1274" width="120" height="50" as="geometry"/>
                </mxCell>
                <mxCell id="ozSw9ZhxZVdoF7WeQp9g-15" value="&lt;div style=&quot;font-size: 10px&quot;&gt;&lt;b&gt;Fixed pricing&lt;/b&gt;&lt;/div&gt;&lt;div style=&quot;font-size: 10px&quot;&gt;List Price&lt;/div&gt;&lt;div style=&quot;font-size: 10px&quot;&gt;Product feature dependent&lt;/div&gt;&lt;div style=&quot;font-size: 10px&quot;&gt;Customer segment dependent&lt;/div&gt;&lt;div style=&quot;font-size: 10px&quot;&gt;Volume dependent&lt;/div&gt;" style="text;html=1;resizable=0;points=[];autosize=1;align=left;verticalAlign=top;spacingTop=-4;fontSize=10;fontColor=#2F5B7C;" parent="Wdu5Wqdw0A0nMoDMASuV-1" vertex="1">
                    <mxGeometry x="1325.5" y="1274" width="150" height="60" as="geometry"/>
                </mxCell>
                <mxCell id="ozSw9ZhxZVdoF7WeQp9g-16" value="&lt;div style=&quot;font-size: 10px&quot;&gt;&lt;b&gt;Types&lt;/b&gt;&lt;/div&gt;&lt;div style=&quot;font-size: 10px&quot;&gt;Asset sale&lt;/div&gt;&lt;div style=&quot;font-size: 10px&quot;&gt;Usage fee&lt;/div&gt;&lt;div style=&quot;font-size: 10px&quot;&gt;Subscription Fees&lt;/div&gt;&lt;div style=&quot;font-size: 10px&quot;&gt;Lending/Renting/Leasing&lt;/div&gt;&lt;div style=&quot;font-size: 10px&quot;&gt;Licensing&lt;/div&gt;&lt;div style=&quot;font-size: 10px&quot;&gt;Brokerage fees&lt;/div&gt;&lt;div style=&quot;font-size: 10px&quot;&gt;Advertising&lt;/div&gt;" style="text;html=1;resizable=0;points=[];autosize=1;align=left;verticalAlign=top;spacingTop=-4;fontSize=10;fontColor=#2F5B7C;" parent="Wdu5Wqdw0A0nMoDMASuV-1" vertex="1">
                    <mxGeometry x="1180" y="1274" width="130" height="100" as="geometry"/>
                </mxCell>
                <mxCell id="ozSw9ZhxZVdoF7WeQp9g-17" value="" style="shadow=0;dashed=0;html=1;strokeColor=none;labelPosition=center;verticalLabelPosition=bottom;verticalAlign=top;shape=mxgraph.mscae.cloud.data_factory;fillColor=#2F5B7C;labelBackgroundColor=none;fontSize=10;fontColor=#2F5B7C;align=left;" parent="Wdu5Wqdw0A0nMoDMASuV-1" vertex="1">
                    <mxGeometry x="870" y="678" width="50" height="50" as="geometry"/>
                </mxCell>
                <mxCell id="ozSw9ZhxZVdoF7WeQp9g-18" value="" style="shape=mxgraph.signs.transportation.truck_6;html=1;fillColor=#2F5B7C;strokeColor=none;verticalLabelPosition=bottom;verticalAlign=top;align=center;shadow=0;labelBackgroundColor=none;fontSize=10;fontColor=#2F5B7C;aspect=fixed;" parent="Wdu5Wqdw0A0nMoDMASuV-1" vertex="1">
                    <mxGeometry x="1720" y="678" width="40" height="50" as="geometry"/>
                </mxCell>
                <mxCell id="ozSw9ZhxZVdoF7WeQp9g-19" value="" style="shape=image;html=1;verticalAlign=top;verticalLabelPosition=bottom;labelBackgroundColor=#ffffff;imageAspect=0;aspect=fixed;image=https://cdn4.iconfinder.com/data/icons/evil-icons-user-interface/64/price-128.png;shadow=0;strokeColor=#e8edf0;strokeWidth=3;fillColor=#2F5B7C;gradientColor=none;fontSize=10;fontColor=#2F5B7C;align=left;" parent="Wdu5Wqdw0A0nMoDMASuV-1" vertex="1">
                    <mxGeometry x="1084" y="1128" width="58" height="58" as="geometry"/>
                </mxCell>
                <mxCell id="ozSw9ZhxZVdoF7WeQp9g-20" value="" style="dashed=0;html=1;shape=mxgraph.aws3.checklist_cost;fillColor=#2F5B7C;gradientColor=none;shadow=0;labelBackgroundColor=none;strokeColor=none;strokeWidth=3;fontSize=10;fontColor=#2F5B7C;align=left;" parent="Wdu5Wqdw0A0nMoDMASuV-1" vertex="1">
                    <mxGeometry x="2106.5" y="1119.5" width="67.5" height="75" as="geometry"/>
                </mxCell>
                <mxCell id="ozSw9ZhxZVdoF7WeQp9g-21" value="" style="shadow=0;dashed=0;html=1;strokeColor=none;fillColor=#2F5B7C;labelPosition=center;verticalLabelPosition=bottom;verticalAlign=top;outlineConnect=0;shape=mxgraph.office.concepts.link;labelBackgroundColor=none;fontSize=10;fontColor=#000000;align=left;" parent="Wdu5Wqdw0A0nMoDMASuV-1" vertex="1">
                    <mxGeometry x="439" y="229" width="61" height="21" as="geometry"/>
                </mxCell>
                <mxCell id="ozSw9ZhxZVdoF7WeQp9g-22" value="" style="group" parent="Wdu5Wqdw0A0nMoDMASuV-1" vertex="1" connectable="0">
                    <mxGeometry x="2106.5" y="233" width="69" height="50" as="geometry"/>
                </mxCell>
                <mxCell id="ozSw9ZhxZVdoF7WeQp9g-23" value="" style="shadow=0;dashed=0;html=1;strokeColor=#FFFFFF;labelPosition=center;verticalLabelPosition=bottom;verticalAlign=top;outlineConnect=0;shape=mxgraph.office.users.user;fillColor=#2F5B7C;labelBackgroundColor=none;fontSize=10;fontColor=#000000;align=left;strokeWidth=2;" parent="ozSw9ZhxZVdoF7WeQp9g-22" vertex="1">
                    <mxGeometry x="31" y="-5" width="46" height="50" as="geometry"/>
                </mxCell>
                <mxCell id="ozSw9ZhxZVdoF7WeQp9g-24" value="" style="shadow=0;dashed=0;html=1;strokeColor=#FFFFFF;labelPosition=center;verticalLabelPosition=bottom;verticalAlign=top;outlineConnect=0;shape=mxgraph.office.users.user;fillColor=#2F5B7C;labelBackgroundColor=none;fontSize=10;fontColor=#000000;align=left;strokeWidth=2;" parent="ozSw9ZhxZVdoF7WeQp9g-22" vertex="1">
                    <mxGeometry width="46" height="50" as="geometry"/>
                </mxCell>
            </root>
        </mxGraphModel>
    </diagram>
    <diagram id="9fEFlt9d-dm433M7lzdT" name="UseCase">
        &#xa;        &#xa;&#xa;
        <mxGraphModel dx="1112" dy="620" grid="1" gridSize="10" guides="1" tooltips="1" connect="1" arrows="1" fold="1" page="1" pageScale="1" pageWidth="1169" pageHeight="827" math="0" shadow="0">
            &#xa;            &#xa;&#xa;
            <root>
                &#xa;                &#xa;&#xa;
                <mxCell id="z3kBNBNMOMFs_i7XtFFf-0"/>
                &#xa;                &#xa;&#xa;
                <mxCell id="z3kBNBNMOMFs_i7XtFFf-1" parent="z3kBNBNMOMFs_i7XtFFf-0"/>
                &#xa;                &#xa;&#xa;
            </root>
            &#xa;            &#xa;&#xa;
        </mxGraphModel>
        &#xa;        &#xa;&#xa;
    </diagram>
    <diagram id="ONdYT9s7rSgk7rah6Qt1" name="Architecture">
        &#xa;        &#xa;&#xa;
        <mxGraphModel dx="1112" dy="620" grid="1" gridSize="10" guides="1" tooltips="1" connect="1" arrows="1" fold="1" page="1" pageScale="1" pageWidth="1654" pageHeight="1169" math="0" shadow="0">
            &#xa;            &#xa;&#xa;
            <root>
                &#xa;                &#xa;&#xa;
                <mxCell id="bAZ_vhNBRbsB0IEPVNS5-0"/>
                &#xa;                &#xa;&#xa;
                <mxCell id="bAZ_vhNBRbsB0IEPVNS5-1" parent="bAZ_vhNBRbsB0IEPVNS5-0"/>
                &#xa;                &#xa;&#xa;
            </root>
            &#xa;            &#xa;&#xa;
        </mxGraphModel>
        &#xa;        &#xa;&#xa;
    </diagram>
    <diagram id="FkctUXYuM5iIVwWejlsI" name="ScreenTransition">
        &#xa;
        <mxGraphModel dx="1102" dy="499" grid="1" gridSize="10" guides="1" tooltips="1" connect="1" arrows="1" fold="1" page="1" pageScale="1" pageWidth="1169" pageHeight="1654" math="0" shadow="0">
            &#xa;
            <root>
                &#xa;
                <mxCell id="KirR_vz-1is4Dw7YNNzK-0"/>
                &#xa;
                <mxCell id="KirR_vz-1is4Dw7YNNzK-1" parent="KirR_vz-1is4Dw7YNNzK-0"/>
                &#xa;
                <mxCell id="KirR_vz-1is4Dw7YNNzK-19" style="edgeStyle=elbowEdgeStyle;rounded=0;orthogonalLoop=1;jettySize=auto;html=1;exitX=1;exitY=0.5;exitDx=0;exitDy=0;exitPerimeter=0;entryX=0;entryY=0.5;entryDx=0;entryDy=0;entryPerimeter=0;" parent="KirR_vz-1is4Dw7YNNzK-1" source="KirR_vz-1is4Dw7YNNzK-2" target="KirR_vz-1is4Dw7YNNzK-4" edge="1">
                    &#xa;
                    <mxGeometry relative="1" as="geometry"/>
                    &#xa;
                </mxCell>
                &#xa;
                <mxCell id="KirR_vz-1is4Dw7YNNzK-20" style="edgeStyle=none;rounded=0;orthogonalLoop=1;jettySize=auto;html=1;exitX=1;exitY=0.5;exitDx=0;exitDy=0;exitPerimeter=0;entryX=0;entryY=0.5;entryDx=0;entryDy=0;entryPerimeter=0;" parent="KirR_vz-1is4Dw7YNNzK-1" source="KirR_vz-1is4Dw7YNNzK-2" target="KirR_vz-1is4Dw7YNNzK-8" edge="1">
                    &#xa;
                    <mxGeometry relative="1" as="geometry"/>
                    &#xa;
                </mxCell>
                &#xa;
                <mxCell id="KirR_vz-1is4Dw7YNNzK-2" value="Landing Page" style="html=1;strokeColor=none;fillColor=#0079D6;labelPosition=center;verticalLabelPosition=middle;verticalAlign=top;align=center;fontSize=12;outlineConnect=0;spacingTop=-6;fontColor=#FFFFFF;shape=mxgraph.sitemap.page;" parent="KirR_vz-1is4Dw7YNNzK-1" vertex="1">
                    &#xa;
                    <mxGeometry x="120" y="340" width="120" height="70" as="geometry"/>
                    &#xa;
                </mxCell>
                &#xa;
                <mxCell id="KirR_vz-1is4Dw7YNNzK-4" value="SignIn" style="html=1;strokeColor=none;fillColor=#0079D6;labelPosition=center;verticalLabelPosition=middle;verticalAlign=top;align=center;fontSize=12;outlineConnect=0;spacingTop=-6;fontColor=#FFFFFF;shape=mxgraph.sitemap.login;" parent="KirR_vz-1is4Dw7YNNzK-1" vertex="1">
                    &#xa;
                    <mxGeometry x="320" y="490" width="120" height="70" as="geometry"/>
                    &#xa;
                </mxCell>
                &#xa;
                <mxCell id="KirR_vz-1is4Dw7YNNzK-5" value="Home" style="html=1;strokeColor=none;fillColor=#0079D6;labelPosition=center;verticalLabelPosition=middle;verticalAlign=top;align=center;fontSize=12;outlineConnect=0;spacingTop=-6;fontColor=#FFFFFF;shape=mxgraph.sitemap.home;" parent="KirR_vz-1is4Dw7YNNzK-1" vertex="1">
                    &#xa;
                    <mxGeometry x="520" y="490" width="120" height="70" as="geometry"/>
                    &#xa;
                </mxCell>
                &#xa;
                <mxCell id="KirR_vz-1is4Dw7YNNzK-6" value="Income Record Edit" style="html=1;strokeColor=none;fillColor=#0079D6;labelPosition=center;verticalLabelPosition=middle;verticalAlign=top;align=center;fontSize=12;outlineConnect=0;spacingTop=-6;fontColor=#FFFFFF;shape=mxgraph.sitemap.form;" parent="KirR_vz-1is4Dw7YNNzK-1" vertex="1">
                    &#xa;
                    <mxGeometry x="920" y="170" width="120" height="70" as="geometry"/>
                    &#xa;
                </mxCell>
                &#xa;
                <mxCell id="KirR_vz-1is4Dw7YNNzK-7" value="Income Dashboard" style="html=1;strokeColor=none;fillColor=#0079D6;labelPosition=center;verticalLabelPosition=middle;verticalAlign=top;align=center;fontSize=12;outlineConnect=0;spacingTop=-6;fontColor=#FFFFFF;shape=mxgraph.sitemap.chart;" parent="KirR_vz-1is4Dw7YNNzK-1" vertex="1">
                    &#xa;
                    <mxGeometry x="720" y="124" width="120" height="70" as="geometry"/>
                    &#xa;
                </mxCell>
                &#xa;
                <mxCell id="KirR_vz-1is4Dw7YNNzK-8" value="SignUp" style="html=1;strokeColor=none;fillColor=#0079D6;labelPosition=center;verticalLabelPosition=middle;verticalAlign=top;align=center;fontSize=12;outlineConnect=0;spacingTop=-6;fontColor=#FFFFFF;shape=mxgraph.sitemap.form;" parent="KirR_vz-1is4Dw7YNNzK-1" vertex="1">
                    &#xa;
                    <mxGeometry x="320" y="340" width="120" height="70" as="geometry"/>
                    &#xa;
                </mxCell>
                &#xa;
                <mxCell id="KirR_vz-1is4Dw7YNNzK-9" value="Expense Category Edit" style="html=1;strokeColor=none;fillColor=#0079D6;labelPosition=center;verticalLabelPosition=middle;verticalAlign=top;align=center;fontSize=12;outlineConnect=0;spacingTop=-6;fontColor=#FFFFFF;shape=mxgraph.sitemap.form;" parent="KirR_vz-1is4Dw7YNNzK-1" vertex="1">
                    &#xa;
                    <mxGeometry x="920" y="260" width="120" height="70" as="geometry"/>
                    &#xa;
                </mxCell>
                &#xa;
                <mxCell id="KirR_vz-1is4Dw7YNNzK-10" value="Expense Dashboard" style="html=1;strokeColor=none;fillColor=#0079D6;labelPosition=center;verticalLabelPosition=middle;verticalAlign=top;align=center;fontSize=12;outlineConnect=0;spacingTop=-6;fontColor=#FFFFFF;shape=mxgraph.sitemap.chart;" parent="KirR_vz-1is4Dw7YNNzK-1" vertex="1">
                    &#xa;
                    <mxGeometry x="720" y="300" width="120" height="70" as="geometry"/>
                    &#xa;
                </mxCell>
                &#xa;
                <mxCell id="KirR_vz-1is4Dw7YNNzK-11" value="Asset Item Edit" style="html=1;strokeColor=none;fillColor=#0079D6;labelPosition=center;verticalLabelPosition=middle;verticalAlign=top;align=center;fontSize=12;outlineConnect=0;spacingTop=-6;fontColor=#FFFFFF;shape=mxgraph.sitemap.form;" parent="KirR_vz-1is4Dw7YNNzK-1" vertex="1">
                    &#xa;
                    <mxGeometry x="920" y="640" width="120" height="70" as="geometry"/>
                    &#xa;
                </mxCell>
                &#xa;
                <mxCell id="KirR_vz-1is4Dw7YNNzK-12" value="Asset Dashboard" style="html=1;strokeColor=none;fillColor=#0079D6;labelPosition=center;verticalLabelPosition=middle;verticalAlign=top;align=center;fontSize=12;outlineConnect=0;spacingTop=-6;fontColor=#FFFFFF;shape=mxgraph.sitemap.chart;" parent="KirR_vz-1is4Dw7YNNzK-1" vertex="1">
                    &#xa;
                    <mxGeometry x="720" y="734" width="120" height="70" as="geometry"/>
                    &#xa;
                </mxCell>
                &#xa;
                <mxCell id="KirR_vz-1is4Dw7YNNzK-13" value="Debt Record Edit" style="html=1;strokeColor=none;fillColor=#0079D6;labelPosition=center;verticalLabelPosition=middle;verticalAlign=top;align=center;fontSize=12;outlineConnect=0;spacingTop=-6;fontColor=#FFFFFF;shape=mxgraph.sitemap.form;" parent="KirR_vz-1is4Dw7YNNzK-1" vertex="1">
                    &#xa;
                    <mxGeometry x="920" y="1103" width="120" height="70" as="geometry"/>
                    &#xa;
                </mxCell>
                &#xa;
                <mxCell id="KirR_vz-1is4Dw7YNNzK-14" value="Debt Dashboard" style="html=1;strokeColor=none;fillColor=#0079D6;labelPosition=center;verticalLabelPosition=middle;verticalAlign=top;align=center;fontSize=12;outlineConnect=0;spacingTop=-6;fontColor=#FFFFFF;shape=mxgraph.sitemap.chart;" parent="KirR_vz-1is4Dw7YNNzK-1" vertex="1">
                    &#xa;
                    <mxGeometry x="720" y="1013" width="120" height="70" as="geometry"/>
                    &#xa;
                </mxCell>
                &#xa;
                <mxCell id="KirR_vz-1is4Dw7YNNzK-15" value="Settings" style="html=1;strokeColor=none;fillColor=#0079D6;labelPosition=center;verticalLabelPosition=middle;verticalAlign=top;align=center;fontSize=12;outlineConnect=0;spacingTop=-6;fontColor=#FFFFFF;shape=mxgraph.sitemap.settings;" parent="KirR_vz-1is4Dw7YNNzK-1" vertex="1">
                    &#xa;
                    <mxGeometry x="720" y="1300" width="120" height="70" as="geometry"/>
                    &#xa;
                </mxCell>
                &#xa;
                <mxCell id="KirR_vz-1is4Dw7YNNzK-16" value="Saifu Record Edit" style="html=1;strokeColor=none;fillColor=#0079D6;labelPosition=center;verticalLabelPosition=middle;verticalAlign=top;align=center;fontSize=12;outlineConnect=0;spacingTop=-6;fontColor=#FFFFFF;shape=mxgraph.sitemap.form;" parent="KirR_vz-1is4Dw7YNNzK-1" vertex="1">
                    &#xa;
                    <mxGeometry x="920" y="540" width="120" height="70" as="geometry"/>
                    &#xa;
                </mxCell>
                &#xa;
                <mxCell id="KirR_vz-1is4Dw7YNNzK-17" value="Safiu Dashboard" style="html=1;strokeColor=none;fillColor=#0079D6;labelPosition=center;verticalLabelPosition=middle;verticalAlign=top;align=center;fontSize=12;outlineConnect=0;spacingTop=-6;fontColor=#FFFFFF;shape=mxgraph.sitemap.chart;" parent="KirR_vz-1is4Dw7YNNzK-1" vertex="1">
                    &#xa;
                    <mxGeometry x="720" y="490" width="120" height="70" as="geometry"/>
                    &#xa;
                </mxCell>
                &#xa;
                <mxCell id="KirR_vz-1is4Dw7YNNzK-21" style="edgeStyle=elbowEdgeStyle;rounded=0;orthogonalLoop=1;jettySize=auto;html=1;exitX=1;exitY=0.5;exitDx=0;exitDy=0;exitPerimeter=0;entryX=0;entryY=0.5;entryDx=0;entryDy=0;entryPerimeter=0;" parent="KirR_vz-1is4Dw7YNNzK-1" source="KirR_vz-1is4Dw7YNNzK-4" target="KirR_vz-1is4Dw7YNNzK-5" edge="1">
                    &#xa;
                    <mxGeometry relative="1" as="geometry">
                        &#xa;
                        <mxPoint x="230" y="425" as="sourcePoint"/>
                        &#xa;
                        <mxPoint x="310" y="535" as="targetPoint"/>
                        &#xa;
                    </mxGeometry>
                    &#xa;
                </mxCell>
                &#xa;
                <mxCell id="KirR_vz-1is4Dw7YNNzK-22" style="edgeStyle=elbowEdgeStyle;rounded=0;orthogonalLoop=1;jettySize=auto;html=1;exitX=1;exitY=0.5;exitDx=0;exitDy=0;exitPerimeter=0;entryX=0;entryY=0.5;entryDx=0;entryDy=0;entryPerimeter=0;" parent="KirR_vz-1is4Dw7YNNzK-1" source="KirR_vz-1is4Dw7YNNzK-5" target="KirR_vz-1is4Dw7YNNzK-15" edge="1">
                    &#xa;
                    <mxGeometry relative="1" as="geometry">
                        &#xa;
                        <mxPoint x="450" y="175" as="sourcePoint"/>
                        &#xa;
                        <mxPoint x="530" y="175" as="targetPoint"/>
                        &#xa;
                    </mxGeometry>
                    &#xa;
                </mxCell>
                &#xa;
                <mxCell id="KirR_vz-1is4Dw7YNNzK-23" style="edgeStyle=elbowEdgeStyle;rounded=0;orthogonalLoop=1;jettySize=auto;html=1;exitX=1;exitY=0.5;exitDx=0;exitDy=0;exitPerimeter=0;entryX=0;entryY=0.5;entryDx=0;entryDy=0;entryPerimeter=0;" parent="KirR_vz-1is4Dw7YNNzK-1" source="KirR_vz-1is4Dw7YNNzK-5" target="KirR_vz-1is4Dw7YNNzK-7" edge="1">
                    &#xa;
                    <mxGeometry relative="1" as="geometry">
                        &#xa;
                        <mxPoint x="650" y="175" as="sourcePoint"/>
                        &#xa;
                        <mxPoint x="730" y="754" as="targetPoint"/>
                        &#xa;
                    </mxGeometry>
                    &#xa;
                </mxCell>
                &#xa;
                <mxCell id="KirR_vz-1is4Dw7YNNzK-24" style="edgeStyle=elbowEdgeStyle;rounded=0;orthogonalLoop=1;jettySize=auto;html=1;exitX=1;exitY=0.5;exitDx=0;exitDy=0;exitPerimeter=0;entryX=0;entryY=0.5;entryDx=0;entryDy=0;entryPerimeter=0;" parent="KirR_vz-1is4Dw7YNNzK-1" source="KirR_vz-1is4Dw7YNNzK-7" target="KirR_vz-1is4Dw7YNNzK-6" edge="1">
                    &#xa;
                    <mxGeometry relative="1" as="geometry">
                        &#xa;
                        <mxPoint x="650" y="235" as="sourcePoint"/>
                        &#xa;
                        <mxPoint x="730" y="125" as="targetPoint"/>
                        &#xa;
                    </mxGeometry>
                    &#xa;
                </mxCell>
                &#xa;
                <mxCell id="KirR_vz-1is4Dw7YNNzK-25" style="edgeStyle=elbowEdgeStyle;rounded=0;orthogonalLoop=1;jettySize=auto;html=1;exitX=1;exitY=0.5;exitDx=0;exitDy=0;exitPerimeter=0;entryX=0;entryY=0.5;entryDx=0;entryDy=0;entryPerimeter=0;" parent="KirR_vz-1is4Dw7YNNzK-1" source="KirR_vz-1is4Dw7YNNzK-5" target="KirR_vz-1is4Dw7YNNzK-10" edge="1">
                    &#xa;
                    <mxGeometry relative="1" as="geometry">
                        &#xa;
                        <mxPoint x="650" y="175" as="sourcePoint"/>
                        &#xa;
                        <mxPoint x="730" y="65" as="targetPoint"/>
                        &#xa;
                    </mxGeometry>
                    &#xa;
                </mxCell>
                &#xa;
                <mxCell id="KirR_vz-1is4Dw7YNNzK-26" style="edgeStyle=elbowEdgeStyle;rounded=0;orthogonalLoop=1;jettySize=auto;html=1;exitX=1;exitY=0.5;exitDx=0;exitDy=0;exitPerimeter=0;entryX=0;entryY=0.5;entryDx=0;entryDy=0;entryPerimeter=0;" parent="KirR_vz-1is4Dw7YNNzK-1" source="KirR_vz-1is4Dw7YNNzK-10" target="KirR_vz-1is4Dw7YNNzK-9" edge="1">
                    &#xa;
                    <mxGeometry relative="1" as="geometry">
                        &#xa;
                        <mxPoint x="660" y="520" as="sourcePoint"/>
                        &#xa;
                        <mxPoint x="740" y="410" as="targetPoint"/>
                        &#xa;
                    </mxGeometry>
                    &#xa;
                </mxCell>
                &#xa;
                <mxCell id="KirR_vz-1is4Dw7YNNzK-27" style="edgeStyle=elbowEdgeStyle;rounded=0;orthogonalLoop=1;jettySize=auto;html=1;exitX=1;exitY=0.5;exitDx=0;exitDy=0;exitPerimeter=0;entryX=0;entryY=0.5;entryDx=0;entryDy=0;entryPerimeter=0;" parent="KirR_vz-1is4Dw7YNNzK-1" source="KirR_vz-1is4Dw7YNNzK-12" target="KirR_vz-1is4Dw7YNNzK-11" edge="1">
                    &#xa;
                    <mxGeometry relative="1" as="geometry">
                        &#xa;
                        <mxPoint x="850" y="585" as="sourcePoint"/>
                        &#xa;
                        <mxPoint x="930" y="585" as="targetPoint"/>
                        &#xa;
                    </mxGeometry>
                    &#xa;
                </mxCell>
                &#xa;
                <mxCell id="KirR_vz-1is4Dw7YNNzK-28" value="Asset Record Edit" style="html=1;strokeColor=none;fillColor=#0079D6;labelPosition=center;verticalLabelPosition=middle;verticalAlign=top;align=center;fontSize=12;outlineConnect=0;spacingTop=-6;fontColor=#FFFFFF;shape=mxgraph.sitemap.form;" parent="KirR_vz-1is4Dw7YNNzK-1" vertex="1">
                    &#xa;
                    <mxGeometry x="920" y="824" width="120" height="70" as="geometry"/>
                    &#xa;
                </mxCell>
                &#xa;
                <mxCell id="KirR_vz-1is4Dw7YNNzK-29" style="edgeStyle=elbowEdgeStyle;rounded=0;orthogonalLoop=1;jettySize=auto;html=1;exitX=1;exitY=0.5;exitDx=0;exitDy=0;exitPerimeter=0;entryX=0;entryY=0.5;entryDx=0;entryDy=0;entryPerimeter=0;" parent="KirR_vz-1is4Dw7YNNzK-1" source="KirR_vz-1is4Dw7YNNzK-12" target="KirR_vz-1is4Dw7YNNzK-28" edge="1">
                    &#xa;
                    <mxGeometry relative="1" as="geometry">
                        &#xa;
                        <mxPoint x="850" y="715" as="sourcePoint"/>
                        &#xa;
                        <mxPoint x="930" y="685" as="targetPoint"/>
                        &#xa;
                    </mxGeometry>
                    &#xa;
                </mxCell>
                &#xa;
                <mxCell id="KirR_vz-1is4Dw7YNNzK-30" style="edgeStyle=elbowEdgeStyle;rounded=0;orthogonalLoop=1;jettySize=auto;html=1;exitX=1;exitY=0.5;exitDx=0;exitDy=0;exitPerimeter=0;" parent="KirR_vz-1is4Dw7YNNzK-1" source="KirR_vz-1is4Dw7YNNzK-5" target="KirR_vz-1is4Dw7YNNzK-12" edge="1">
                    &#xa;
                    <mxGeometry relative="1" as="geometry">
                        &#xa;
                        <mxPoint x="650" y="175" as="sourcePoint"/>
                        &#xa;
                        <mxPoint x="730" y="175" as="targetPoint"/>
                        &#xa;
                    </mxGeometry>
                    &#xa;
                </mxCell>
                &#xa;
                <mxCell id="KirR_vz-1is4Dw7YNNzK-31" style="edgeStyle=elbowEdgeStyle;rounded=0;orthogonalLoop=1;jettySize=auto;html=1;exitX=1;exitY=0.5;exitDx=0;exitDy=0;exitPerimeter=0;entryX=0;entryY=0.5;entryDx=0;entryDy=0;entryPerimeter=0;" parent="KirR_vz-1is4Dw7YNNzK-1" source="KirR_vz-1is4Dw7YNNzK-5" target="KirR_vz-1is4Dw7YNNzK-14" edge="1">
                    &#xa;
                    <mxGeometry relative="1" as="geometry">
                        &#xa;
                        <mxPoint x="650" y="175" as="sourcePoint"/>
                        &#xa;
                        <mxPoint x="730" y="325" as="targetPoint"/>
                        &#xa;
                    </mxGeometry>
                    &#xa;
                </mxCell>
                &#xa;
                <mxCell id="KirR_vz-1is4Dw7YNNzK-32" value="Debt Item Edit" style="html=1;strokeColor=none;fillColor=#0079D6;labelPosition=center;verticalLabelPosition=middle;verticalAlign=top;align=center;fontSize=12;outlineConnect=0;spacingTop=-6;fontColor=#FFFFFF;shape=mxgraph.sitemap.form;" parent="KirR_vz-1is4Dw7YNNzK-1" vertex="1">
                    &#xa;
                    <mxGeometry x="920" y="920" width="120" height="70" as="geometry"/>
                    &#xa;
                </mxCell>
                &#xa;
                <mxCell id="KirR_vz-1is4Dw7YNNzK-33" style="edgeStyle=elbowEdgeStyle;rounded=0;orthogonalLoop=1;jettySize=auto;html=1;exitX=1;exitY=0.5;exitDx=0;exitDy=0;exitPerimeter=0;entryX=0;entryY=0.5;entryDx=0;entryDy=0;entryPerimeter=0;" parent="KirR_vz-1is4Dw7YNNzK-1" source="KirR_vz-1is4Dw7YNNzK-14" target="KirR_vz-1is4Dw7YNNzK-13" edge="1">
                    &#xa;
                    <mxGeometry relative="1" as="geometry">
                        &#xa;
                        <mxPoint x="850" y="825" as="sourcePoint"/>
                        &#xa;
                        <mxPoint x="930" y="775" as="targetPoint"/>
                        &#xa;
                    </mxGeometry>
                    &#xa;
                </mxCell>
                &#xa;
                <mxCell id="KirR_vz-1is4Dw7YNNzK-35" style="edgeStyle=elbowEdgeStyle;rounded=0;orthogonalLoop=1;jettySize=auto;html=1;exitX=1;exitY=0.5;exitDx=0;exitDy=0;exitPerimeter=0;entryX=0;entryY=0.5;entryDx=0;entryDy=0;entryPerimeter=0;" parent="KirR_vz-1is4Dw7YNNzK-1" source="KirR_vz-1is4Dw7YNNzK-14" target="KirR_vz-1is4Dw7YNNzK-32" edge="1">
                    &#xa;
                    <mxGeometry relative="1" as="geometry">
                        &#xa;
                        <mxPoint x="850" y="985" as="sourcePoint"/>
                        &#xa;
                        <mxPoint x="930" y="1065" as="targetPoint"/>
                        &#xa;
                    </mxGeometry>
                    &#xa;
                </mxCell>
                &#xa;
                <mxCell id="KirR_vz-1is4Dw7YNNzK-36" style="edgeStyle=elbowEdgeStyle;rounded=0;orthogonalLoop=1;jettySize=auto;html=1;exitX=1;exitY=0.5;exitDx=0;exitDy=0;exitPerimeter=0;entryX=0;entryY=0.5;entryDx=0;entryDy=0;entryPerimeter=0;" parent="KirR_vz-1is4Dw7YNNzK-1" source="KirR_vz-1is4Dw7YNNzK-5" target="KirR_vz-1is4Dw7YNNzK-17" edge="1">
                    &#xa;
                    <mxGeometry relative="1" as="geometry">
                        &#xa;
                        <mxPoint x="650" y="175" as="sourcePoint"/>
                        &#xa;
                        <mxPoint x="730" y="245" as="targetPoint"/>
                        &#xa;
                    </mxGeometry>
                    &#xa;
                </mxCell>
                &#xa;
                <mxCell id="KirR_vz-1is4Dw7YNNzK-37" value="Saifu Item Edit" style="html=1;strokeColor=none;fillColor=#0079D6;labelPosition=center;verticalLabelPosition=middle;verticalAlign=top;align=center;fontSize=12;outlineConnect=0;spacingTop=-6;fontColor=#FFFFFF;shape=mxgraph.sitemap.form;" parent="KirR_vz-1is4Dw7YNNzK-1" vertex="1">
                    &#xa;
                    <mxGeometry x="920" y="441" width="120" height="70" as="geometry"/>
                    &#xa;
                </mxCell>
                &#xa;
                <mxCell id="KirR_vz-1is4Dw7YNNzK-38" style="edgeStyle=elbowEdgeStyle;rounded=0;orthogonalLoop=1;jettySize=auto;html=1;exitX=1;exitY=0.5;exitDx=0;exitDy=0;exitPerimeter=0;entryX=0;entryY=0.5;entryDx=0;entryDy=0;entryPerimeter=0;" parent="KirR_vz-1is4Dw7YNNzK-1" source="KirR_vz-1is4Dw7YNNzK-17" target="KirR_vz-1is4Dw7YNNzK-37" edge="1">
                    &#xa;
                    <mxGeometry relative="1" as="geometry">
                        &#xa;
                        <mxPoint x="850" y="786" as="sourcePoint"/>
                        &#xa;
                        <mxPoint x="920" y="371" as="targetPoint"/>
                        &#xa;
                    </mxGeometry>
                    &#xa;
                </mxCell>
                &#xa;
                <mxCell id="KirR_vz-1is4Dw7YNNzK-39" style="edgeStyle=elbowEdgeStyle;rounded=0;orthogonalLoop=1;jettySize=auto;html=1;exitX=1;exitY=0.5;exitDx=0;exitDy=0;exitPerimeter=0;entryX=0;entryY=0.5;entryDx=0;entryDy=0;entryPerimeter=0;" parent="KirR_vz-1is4Dw7YNNzK-1" source="KirR_vz-1is4Dw7YNNzK-17" target="KirR_vz-1is4Dw7YNNzK-16" edge="1">
                    &#xa;
                    <mxGeometry relative="1" as="geometry">
                        &#xa;
                        <mxPoint x="850" y="431" as="sourcePoint"/>
                        &#xa;
                        <mxPoint x="930" y="371" as="targetPoint"/>
                        &#xa;
                    </mxGeometry>
                    &#xa;
                </mxCell>
                &#xa;
                <mxCell id="yqchFOUXIkmV3WQeSWd--1" value="Screen Transition for PC" style="text;strokeColor=none;fillColor=none;html=1;fontSize=24;fontStyle=1;verticalAlign=middle;align=center;" parent="KirR_vz-1is4Dw7YNNzK-1" vertex="1">
                    &#xa;
                    <mxGeometry x="40" y="20" width="300" height="40" as="geometry"/>
                    &#xa;
                </mxCell>
                &#xa;
                <mxCell id="yY0BU9oiwmHtdz42-Uuk-38" value="Asset Category Edit" style="html=1;strokeColor=none;fillColor=#0079D6;labelPosition=center;verticalLabelPosition=middle;verticalAlign=top;align=center;fontSize=12;outlineConnect=0;spacingTop=-6;fontColor=#FFFFFF;shape=mxgraph.sitemap.form;" parent="KirR_vz-1is4Dw7YNNzK-1" vertex="1">
                    &#xa;
                    <mxGeometry x="920" y="734" width="120" height="70" as="geometry"/>
                    &#xa;
                </mxCell>
                &#xa;
                <mxCell id="yY0BU9oiwmHtdz42-Uuk-39" value="Expense Record Edit" style="html=1;strokeColor=none;fillColor=#0079D6;labelPosition=center;verticalLabelPosition=middle;verticalAlign=top;align=center;fontSize=12;outlineConnect=0;spacingTop=-6;fontColor=#FFFFFF;shape=mxgraph.sitemap.form;" parent="KirR_vz-1is4Dw7YNNzK-1" vertex="1">
                    &#xa;
                    <mxGeometry x="920" y="350" width="120" height="70" as="geometry"/>
                    &#xa;
                </mxCell>
                &#xa;
                <mxCell id="yY0BU9oiwmHtdz42-Uuk-40" value="Income Category Edit" style="html=1;strokeColor=none;fillColor=#0079D6;labelPosition=center;verticalLabelPosition=middle;verticalAlign=top;align=center;fontSize=12;outlineConnect=0;spacingTop=-6;fontColor=#FFFFFF;shape=mxgraph.sitemap.form;" parent="KirR_vz-1is4Dw7YNNzK-1" vertex="1">
                    &#xa;
                    <mxGeometry x="920" y="80" width="120" height="70" as="geometry"/>
                    &#xa;
                </mxCell>
                &#xa;
                <mxCell id="yY0BU9oiwmHtdz42-Uuk-42" style="edgeStyle=elbowEdgeStyle;rounded=0;orthogonalLoop=1;jettySize=auto;html=1;exitX=1;exitY=0.5;exitDx=0;exitDy=0;exitPerimeter=0;entryX=0;entryY=0.5;entryDx=0;entryDy=0;entryPerimeter=0;" parent="KirR_vz-1is4Dw7YNNzK-1" source="KirR_vz-1is4Dw7YNNzK-7" target="yY0BU9oiwmHtdz42-Uuk-40" edge="1">
                    &#xa;
                    <mxGeometry relative="1" as="geometry">
                        &#xa;
                        <mxPoint x="650" y="290" as="sourcePoint"/>
                        &#xa;
                        <mxPoint x="730" y="125" as="targetPoint"/>
                        &#xa;
                    </mxGeometry>
                    &#xa;
                </mxCell>
                &#xa;
                <mxCell id="yY0BU9oiwmHtdz42-Uuk-43" style="edgeStyle=elbowEdgeStyle;rounded=0;orthogonalLoop=1;jettySize=auto;html=1;exitX=1;exitY=0.5;exitDx=0;exitDy=0;exitPerimeter=0;entryX=0;entryY=0.5;entryDx=0;entryDy=0;entryPerimeter=0;" parent="KirR_vz-1is4Dw7YNNzK-1" source="KirR_vz-1is4Dw7YNNzK-10" target="yY0BU9oiwmHtdz42-Uuk-39" edge="1">
                    &#xa;
                    <mxGeometry relative="1" as="geometry">
                        &#xa;
                        <mxPoint x="850" y="425" as="sourcePoint"/>
                        &#xa;
                        <mxPoint x="930" y="385" as="targetPoint"/>
                        &#xa;
                    </mxGeometry>
                    &#xa;
                </mxCell>
                &#xa;
                <mxCell id="yY0BU9oiwmHtdz42-Uuk-44" value="Member" style="html=1;strokeColor=none;fillColor=#0079D6;labelPosition=center;verticalLabelPosition=middle;verticalAlign=top;align=center;fontSize=12;outlineConnect=0;spacingTop=-6;fontColor=#FFFFFF;shape=mxgraph.sitemap.user;" parent="KirR_vz-1is4Dw7YNNzK-1" vertex="1">
                    &#xa;
                    <mxGeometry x="720" y="1200" width="120" height="70" as="geometry"/>
                    &#xa;
                </mxCell>
                &#xa;
                <mxCell id="yY0BU9oiwmHtdz42-Uuk-46" style="edgeStyle=elbowEdgeStyle;rounded=0;orthogonalLoop=1;jettySize=auto;html=1;exitX=1;exitY=0.5;exitDx=0;exitDy=0;exitPerimeter=0;entryX=0;entryY=0.5;entryDx=0;entryDy=0;entryPerimeter=0;" parent="KirR_vz-1is4Dw7YNNzK-1" source="KirR_vz-1is4Dw7YNNzK-5" target="yY0BU9oiwmHtdz42-Uuk-44" edge="1">
                    &#xa;
                    <mxGeometry relative="1" as="geometry">
                        &#xa;
                        <mxPoint x="650" y="290" as="sourcePoint"/>
                        &#xa;
                        <mxPoint x="730" y="616" as="targetPoint"/>
                        &#xa;
                    </mxGeometry>
                    &#xa;
                </mxCell>
                &#xa;
                <mxCell id="yY0BU9oiwmHtdz42-Uuk-47" style="edgeStyle=none;rounded=0;orthogonalLoop=1;jettySize=auto;html=1;entryX=1;entryY=0.5;entryDx=0;entryDy=0;entryPerimeter=0;" parent="KirR_vz-1is4Dw7YNNzK-1" source="KirR_vz-1is4Dw7YNNzK-5" target="KirR_vz-1is4Dw7YNNzK-5" edge="1">
                    &#xa;
                    <mxGeometry relative="1" as="geometry"/>
                    &#xa;
                </mxCell>
                &#xa;
                <mxCell id="yY0BU9oiwmHtdz42-Uuk-48" value="Debt Category Edit" style="html=1;strokeColor=none;fillColor=#0079D6;labelPosition=center;verticalLabelPosition=middle;verticalAlign=top;align=center;fontSize=12;outlineConnect=0;spacingTop=-6;fontColor=#FFFFFF;shape=mxgraph.sitemap.form;" parent="KirR_vz-1is4Dw7YNNzK-1" vertex="1">
                    &#xa;
                    <mxGeometry x="920" y="1013" width="120" height="70" as="geometry"/>
                    &#xa;
                </mxCell>
                &#xa;
                <mxCell id="yY0BU9oiwmHtdz42-Uuk-49" style="edgeStyle=elbowEdgeStyle;rounded=0;orthogonalLoop=1;jettySize=auto;html=1;exitX=1;exitY=0.5;exitDx=0;exitDy=0;exitPerimeter=0;entryX=0;entryY=0.5;entryDx=0;entryDy=0;entryPerimeter=0;" parent="KirR_vz-1is4Dw7YNNzK-1" source="KirR_vz-1is4Dw7YNNzK-14" target="yY0BU9oiwmHtdz42-Uuk-48" edge="1">
                    &#xa;
                    <mxGeometry relative="1" as="geometry">
                        &#xa;
                        <mxPoint x="850" y="1011" as="sourcePoint"/>
                        &#xa;
                        <mxPoint x="930" y="965" as="targetPoint"/>
                        &#xa;
                    </mxGeometry>
                    &#xa;
                </mxCell>
                &#xa;
                <mxCell id="yY0BU9oiwmHtdz42-Uuk-50" style="edgeStyle=elbowEdgeStyle;rounded=0;orthogonalLoop=1;jettySize=auto;html=1;exitX=1;exitY=0.5;exitDx=0;exitDy=0;exitPerimeter=0;entryX=0;entryY=0.5;entryDx=0;entryDy=0;entryPerimeter=0;" parent="KirR_vz-1is4Dw7YNNzK-1" source="KirR_vz-1is4Dw7YNNzK-12" target="yY0BU9oiwmHtdz42-Uuk-38" edge="1">
                    &#xa;
                    <mxGeometry relative="1" as="geometry">
                        &#xa;
                        <mxPoint x="850" y="771" as="sourcePoint"/>
                        &#xa;
                        <mxPoint x="930" y="685" as="targetPoint"/>
                        &#xa;
                    </mxGeometry>
                    &#xa;
                </mxCell>
                &#xa;
                <mxCell id="_q8Gks2oHwNZLCUBKRCA-0" value="InfoDetail" style="html=1;strokeColor=none;fillColor=#0079D6;labelPosition=center;verticalLabelPosition=middle;verticalAlign=top;align=center;fontSize=12;outlineConnect=0;spacingTop=-6;fontColor=#FFFFFF;shape=mxgraph.sitemap.info;" parent="KirR_vz-1is4Dw7YNNzK-1" vertex="1">
                    &#xa;
                    <mxGeometry x="120" y="490" width="120" height="70" as="geometry"/>
                    &#xa;
                </mxCell>
                &#xa;
                <mxCell id="_q8Gks2oHwNZLCUBKRCA-3" style="edgeStyle=elbowEdgeStyle;rounded=0;orthogonalLoop=1;jettySize=auto;html=1;exitX=0.5;exitY=1;exitDx=0;exitDy=0;exitPerimeter=0;entryX=0.5;entryY=0;entryDx=0;entryDy=0;entryPerimeter=0;" parent="KirR_vz-1is4Dw7YNNzK-1" source="KirR_vz-1is4Dw7YNNzK-2" target="_q8Gks2oHwNZLCUBKRCA-0" edge="1">
                    &#xa;
                    <mxGeometry relative="1" as="geometry">
                        &#xa;
                        <mxPoint x="250" y="385" as="sourcePoint"/>
                        &#xa;
                        <mxPoint x="330" y="535" as="targetPoint"/>
                        &#xa;
                    </mxGeometry>
                    &#xa;
                </mxCell>
                &#xa;
            </root>
            &#xa;
        </mxGraphModel>
        &#xa;
    </diagram>
    <diagram id="Hj4vD3cT--GmkRtwmyEO" name="LandingPage">
        <mxGraphModel dx="544" dy="499" grid="1" gridSize="10" guides="1" tooltips="1" connect="1" arrows="1" fold="1" page="1" pageScale="1" pageWidth="827" pageHeight="1169" math="0" shadow="0">
            <root>
                <mxCell id="iBt6NRr1QlVm1zGjb4wk-0"/>
                <mxCell id="iBt6NRr1QlVm1zGjb4wk-1" parent="iBt6NRr1QlVm1zGjb4wk-0"/>
                <mxCell id="m5dX6dCW3lnOc4q-6HqB-0" value="" style="strokeWidth=1;shadow=0;dashed=0;align=center;html=1;shape=mxgraph.mockup.containers.browserWindow;rSize=0;strokeColor=#666666;strokeColor2=#008cff;strokeColor3=#c4c4c4;mainText=,;recursiveResize=0;container=0;fillColor=#f5f5f5;fontColor=#333333;" parent="iBt6NRr1QlVm1zGjb4wk-1" vertex="1">
                    <mxGeometry x="30" y="40" width="770" height="1480" as="geometry"/>
                </mxCell>
                <mxCell id="m5dX6dCW3lnOc4q-6HqB-1" value="SAIFU" style="strokeWidth=1;shadow=0;dashed=0;align=center;html=1;shape=mxgraph.mockup.containers.anchor;fontSize=17;fontColor=#666666;align=left;" parent="iBt6NRr1QlVm1zGjb4wk-1" vertex="1">
                    <mxGeometry x="90" y="52" width="110" height="26" as="geometry"/>
                </mxCell>
                <mxCell id="m5dX6dCW3lnOc4q-6HqB-2" value="https://saifu-mlm.com" style="strokeWidth=1;shadow=0;dashed=0;align=center;html=1;shape=mxgraph.mockup.containers.anchor;rSize=0;fontSize=17;fontColor=#666666;align=left;" parent="iBt6NRr1QlVm1zGjb4wk-1" vertex="1">
                    <mxGeometry x="160" y="100" width="250" height="26" as="geometry"/>
                </mxCell>
                <mxCell id="m5dX6dCW3lnOc4q-6HqB-8" value="&lt;font style=&quot;font-size: 24px&quot; color=&quot;#000000&quot;&gt;SAIFU&lt;/font&gt;" style="html=1;shadow=0;dashed=0;fillColor=#d0cee2;strokeColor=#56517e;fontSize=16;align=left;spacing=2;spacingLeft=55;" parent="iBt6NRr1QlVm1zGjb4wk-1" vertex="1">
                    <mxGeometry x="30" y="150" width="770" height="60" as="geometry"/>
                </mxCell>
                <mxCell id="m5dX6dCW3lnOc4q-6HqB-10" value="" style="verticalLabelPosition=bottom;shadow=0;dashed=0;align=center;html=1;verticalAlign=top;strokeWidth=1;shape=mxgraph.mockup.graphics.simpleIcon;strokeColor=#999999;" parent="iBt6NRr1QlVm1zGjb4wk-1" vertex="1">
                    <mxGeometry x="40" y="160" width="40" height="40" as="geometry"/>
                </mxCell>
                <mxCell id="m5dX6dCW3lnOc4q-6HqB-12" value="ログイン" style="html=1;shadow=0;dashed=0;shape=mxgraph.bootstrap.rrect;rSize=5;strokeColor=none;strokeWidth=1;fillColor=#0085FC;fontColor=#FFFFFF;whiteSpace=wrap;align=center;verticalAlign=middle;spacingLeft=0;fontStyle=0;fontSize=16;spacing=5;" parent="iBt6NRr1QlVm1zGjb4wk-1" vertex="1">
                    <mxGeometry x="590" y="160" width="80" height="40" as="geometry"/>
                </mxCell>
                <mxCell id="m5dX6dCW3lnOc4q-6HqB-13" value="新規登録" style="html=1;shadow=0;dashed=0;shape=mxgraph.bootstrap.rrect;rSize=5;strokeColor=none;strokeWidth=1;fillColor=#33A64C;fontColor=#FFFFFF;whiteSpace=wrap;align=center;verticalAlign=middle;spacingLeft=0;fontStyle=0;fontSize=16;spacing=5;" parent="iBt6NRr1QlVm1zGjb4wk-1" vertex="1">
                    <mxGeometry x="690" y="160" width="90" height="40" as="geometry"/>
                </mxCell>
                <mxCell id="m5dX6dCW3lnOc4q-6HqB-20" value="" style="html=1;shadow=0;dashed=0;shape=mxgraph.bootstrap.rrect;rSize=5;strokeColor=#DEE2E6;html=1;whiteSpace=wrap;fillColor=#ffffff;fontColor=#0085FC;fontSize=14;" parent="iBt6NRr1QlVm1zGjb4wk-1" vertex="1">
                    <mxGeometry x="304" y="1166" width="220" height="30" as="geometry"/>
                </mxCell>
                <mxCell id="m5dX6dCW3lnOc4q-6HqB-21" value="Previous" style="strokeColor=inherit;fillColor=inherit;gradientColor=inherit;html=1;shadow=0;dashed=0;shape=mxgraph.bootstrap.leftButton;rSize=5;perimeter=none;whiteSpace=wrap;resizeHeight=1;fontColor=#6C767D;fontSize=14;" parent="m5dX6dCW3lnOc4q-6HqB-20" vertex="1">
                    <mxGeometry width="70" height="30" relative="1" as="geometry"/>
                </mxCell>
                <mxCell id="m5dX6dCW3lnOc4q-6HqB-22" value="1" style="strokeColor=inherit;fillColor=inherit;gradientColor=inherit;fontColor=inherit;html=1;shadow=0;dashed=0;perimeter=none;whiteSpace=wrap;resizeHeight=1;fontSize=14;" parent="m5dX6dCW3lnOc4q-6HqB-20" vertex="1">
                    <mxGeometry width="30" height="30" relative="1" as="geometry">
                        <mxPoint x="70" as="offset"/>
                    </mxGeometry>
                </mxCell>
                <mxCell id="m5dX6dCW3lnOc4q-6HqB-23" value="2" style="html=1;shadow=0;dashed=0;perimeter=none;whiteSpace=wrap;resizeHeight=1;fillColor=#0085FC;strokeColor=none;fontColor=#ffffff;fontSize=14;" parent="m5dX6dCW3lnOc4q-6HqB-20" vertex="1">
                    <mxGeometry width="30" height="30" relative="1" as="geometry">
                        <mxPoint x="100" as="offset"/>
                    </mxGeometry>
                </mxCell>
                <mxCell id="m5dX6dCW3lnOc4q-6HqB-24" value="3" style="strokeColor=inherit;fillColor=inherit;gradientColor=inherit;fontColor=inherit;html=1;shadow=0;dashed=0;perimeter=none;whiteSpace=wrap;resizeHeight=1;fontSize=14;" parent="m5dX6dCW3lnOc4q-6HqB-20" vertex="1">
                    <mxGeometry width="30" height="30" relative="1" as="geometry">
                        <mxPoint x="130" as="offset"/>
                    </mxGeometry>
                </mxCell>
                <mxCell id="m5dX6dCW3lnOc4q-6HqB-25" value="Next" style="strokeColor=inherit;fillColor=inherit;gradientColor=inherit;fontColor=inherit;html=1;shadow=0;dashed=0;shape=mxgraph.bootstrap.rightButton;rSize=5;perimeter=none;whiteSpace=wrap;resizeHeight=1;fontSize=14;" parent="m5dX6dCW3lnOc4q-6HqB-20" vertex="1">
                    <mxGeometry x="1" width="60" height="30" relative="1" as="geometry">
                        <mxPoint x="-60" as="offset"/>
                    </mxGeometry>
                </mxCell>
                <mxCell id="m5dX6dCW3lnOc4q-6HqB-29" value="Information" style="text;html=1;strokeColor=none;fillColor=none;align=left;verticalAlign=middle;whiteSpace=wrap;rounded=0;fontColor=#000000;fontSize=20;fontStyle=4" parent="iBt6NRr1QlVm1zGjb4wk-1" vertex="1">
                    <mxGeometry x="60" y="620" width="280" height="30" as="geometry"/>
                </mxCell>
                <mxCell id="m5dX6dCW3lnOc4q-6HqB-35" value="First slide" style="html=1;shadow=0;dashed=0;strokeColor=none;strokeWidth=1;fillColor=#777777;fontColor=#555555;whiteSpace=wrap;align=center;verticalAlign=middle;fontStyle=0;fontSize=40;" parent="iBt6NRr1QlVm1zGjb4wk-1" vertex="1">
                    <mxGeometry x="30" y="210" width="770" height="300" as="geometry"/>
                </mxCell>
                <mxCell id="m5dX6dCW3lnOc4q-6HqB-36" value="" style="html=1;verticalLabelPosition=bottom;labelBackgroundColor=#ffffff;verticalAlign=top;shadow=0;dashed=0;strokeWidth=4;shape=mxgraph.ios7.misc.more;strokeColor=#a0a0a0;" parent="m5dX6dCW3lnOc4q-6HqB-35" vertex="1">
                    <mxGeometry x="1" y="0.5" width="7" height="14" relative="1" as="geometry">
                        <mxPoint x="-50" y="-7" as="offset"/>
                    </mxGeometry>
                </mxCell>
                <mxCell id="m5dX6dCW3lnOc4q-6HqB-37" value="" style="flipH=1;html=1;verticalLabelPosition=bottom;labelBackgroundColor=#ffffff;verticalAlign=top;shadow=0;dashed=0;strokeWidth=4;shape=mxgraph.ios7.misc.more;strokeColor=#a0a0a0;" parent="m5dX6dCW3lnOc4q-6HqB-35" vertex="1">
                    <mxGeometry y="0.5" width="7" height="14" relative="1" as="geometry">
                        <mxPoint x="43" y="-7" as="offset"/>
                    </mxGeometry>
                </mxCell>
                <mxCell id="m5dX6dCW3lnOc4q-6HqB-42" value="" style="verticalLabelPosition=bottom;shadow=0;dashed=0;align=center;html=1;verticalAlign=top;strokeWidth=1;shape=mxgraph.mockup.graphics.simpleIcon;strokeColor=#999999;fontSize=20;fontColor=#000000;" parent="iBt6NRr1QlVm1zGjb4wk-1" vertex="1">
                    <mxGeometry x="182.5" y="1210" width="200" height="180" as="geometry"/>
                </mxCell>
                <mxCell id="m5dX6dCW3lnOc4q-6HqB-43" value="" style="verticalLabelPosition=bottom;shadow=0;dashed=0;align=center;html=1;verticalAlign=top;strokeWidth=1;shape=mxgraph.mockup.graphics.simpleIcon;strokeColor=#999999;fontSize=20;fontColor=#000000;" parent="iBt6NRr1QlVm1zGjb4wk-1" vertex="1">
                    <mxGeometry x="447.5" y="1210" width="200" height="180" as="geometry"/>
                </mxCell>
                <mxCell id="m5dX6dCW3lnOc4q-6HqB-44" value="" style="verticalLabelPosition=bottom;shadow=0;dashed=0;align=center;html=1;verticalAlign=top;strokeWidth=1;shape=mxgraph.mockup.graphics.simpleIcon;strokeColor=#999999;fontSize=20;fontColor=#000000;" parent="iBt6NRr1QlVm1zGjb4wk-1" vertex="1">
                    <mxGeometry x="60" y="530" width="710" height="80" as="geometry"/>
                </mxCell>
                <mxCell id="m5dX6dCW3lnOc4q-6HqB-46" value="Copyright SAIFU-MLM.com" style="text;html=1;strokeColor=none;fillColor=none;align=center;verticalAlign=middle;whiteSpace=wrap;rounded=0;fontSize=15;fontColor=#000000;" parent="iBt6NRr1QlVm1zGjb4wk-1" vertex="1">
                    <mxGeometry x="302" y="1490" width="226" height="20" as="geometry"/>
                </mxCell>
                <mxCell id="m5dX6dCW3lnOc4q-6HqB-52" value="" style="endArrow=none;html=1;fontSize=15;fontColor=#000000;" parent="iBt6NRr1QlVm1zGjb4wk-1" edge="1">
                    <mxGeometry width="50" height="50" relative="1" as="geometry">
                        <mxPoint x="340" y="1391" as="sourcePoint"/>
                        <mxPoint x="390" y="1341" as="targetPoint"/>
                    </mxGeometry>
                </mxCell>
                <mxCell id="m5dX6dCW3lnOc4q-6HqB-53" value="" style="endArrow=none;html=1;fontSize=15;fontColor=#000000;" parent="iBt6NRr1QlVm1zGjb4wk-1" edge="1">
                    <mxGeometry width="50" height="50" relative="1" as="geometry">
                        <mxPoint x="340" y="1391" as="sourcePoint"/>
                        <mxPoint x="390" y="1341" as="targetPoint"/>
                    </mxGeometry>
                </mxCell>
                <mxCell id="m5dX6dCW3lnOc4q-6HqB-54" value="" style="endArrow=none;html=1;fontSize=15;fontColor=#000000;strokeColor=#000000;" parent="iBt6NRr1QlVm1zGjb4wk-1" edge="1">
                    <mxGeometry width="50" height="50" relative="1" as="geometry">
                        <mxPoint x="30" y="1400" as="sourcePoint"/>
                        <mxPoint x="800" y="1400" as="targetPoint"/>
                    </mxGeometry>
                </mxCell>
                <mxCell id="m5dX6dCW3lnOc4q-6HqB-55" value="- Personal Money Literacy Mentor-" style="text;html=1;strokeColor=none;fillColor=none;align=center;verticalAlign=middle;whiteSpace=wrap;rounded=0;fontSize=15;fontColor=#000000;" parent="iBt6NRr1QlVm1zGjb4wk-1" vertex="1">
                    <mxGeometry x="158" y="170" width="260" height="20" as="geometry"/>
                </mxCell>
                <mxCell id="fVuSezLWEeaFf3ZiZcyR-5" value="" style="group" parent="iBt6NRr1QlVm1zGjb4wk-1" vertex="1" connectable="0">
                    <mxGeometry x="58" y="660" width="711" height="90" as="geometry"/>
                </mxCell>
                <mxCell id="fVuSezLWEeaFf3ZiZcyR-1" value="" style="html=1;shadow=1;dashed=0;shape=mxgraph.bootstrap.rrect;rSize=5;strokeColor=#DFDFDF;html=1;whiteSpace=wrap;fillColor=#ffffff;fontColor=#000000;verticalAlign=top;align=left;spacing=20;fontSize=14;spacingLeft=170;container=0;" parent="fVuSezLWEeaFf3ZiZcyR-5" vertex="1">
                    <mxGeometry width="711" height="90" as="geometry"/>
                </mxCell>
                <mxCell id="m5dX6dCW3lnOc4q-6HqB-40" value="64x64" style="strokeColor=none;html=1;whiteSpace=wrap;fillColor=#868E96;fontColor=#DEE2E6;" parent="fVuSezLWEeaFf3ZiZcyR-5" vertex="1">
                    <mxGeometry x="10" y="13" width="64" height="64" as="geometry"/>
                </mxCell>
                <mxCell id="m5dX6dCW3lnOc4q-6HqB-51" value="Primary" style="html=1;shadow=0;dashed=0;shape=mxgraph.bootstrap.rrect;rSize=5;strokeColor=none;strokeWidth=1;fillColor=#0085FC;fontColor=#FFFFFF;whiteSpace=wrap;align=left;verticalAlign=middle;spacingLeft=0;fontStyle=1;fontSize=14;spacing=5;" parent="fVuSezLWEeaFf3ZiZcyR-5" vertex="1">
                    <mxGeometry x="262" y="7" width="60" height="20" as="geometry"/>
                </mxCell>
                <mxCell id="m5dX6dCW3lnOc4q-6HqB-41" value="&lt;font style=&quot;font-size: 20px&quot;&gt;Media heading&lt;/font&gt;&lt;br&gt;Cras sit amet nibh libero, in gravida nulla. Nulla vel metus scelerisque ante sollicitudin. Cras purus odio, vestibulum in vulputate at, tempus viverra turpis. Fusce condimentum nunc ac nisi vulputate fringilla. Donec lacinia congue felis in faucibus." style="strokeColor=none;fillColor=none;fontColor=#000000;perimeter=none;whiteSpace=wrap;resizeWidth=1;align=left;spacing=2;fontSize=14;verticalAlign=top;html=1;" parent="fVuSezLWEeaFf3ZiZcyR-5" vertex="1">
                    <mxGeometry x="90" width="621" height="90" as="geometry"/>
                </mxCell>
                <mxCell id="fVuSezLWEeaFf3ZiZcyR-6" value="" style="group" parent="iBt6NRr1QlVm1zGjb4wk-1" vertex="1" connectable="0">
                    <mxGeometry x="58" y="760" width="711" height="90" as="geometry"/>
                </mxCell>
                <mxCell id="fVuSezLWEeaFf3ZiZcyR-7" value="" style="html=1;shadow=1;dashed=0;shape=mxgraph.bootstrap.rrect;rSize=5;strokeColor=#DFDFDF;html=1;whiteSpace=wrap;fillColor=#ffffff;fontColor=#000000;verticalAlign=top;align=left;spacing=20;fontSize=14;spacingLeft=170;container=0;" parent="fVuSezLWEeaFf3ZiZcyR-6" vertex="1">
                    <mxGeometry width="711" height="90" as="geometry"/>
                </mxCell>
                <mxCell id="fVuSezLWEeaFf3ZiZcyR-8" value="64x64" style="strokeColor=none;html=1;whiteSpace=wrap;fillColor=#868E96;fontColor=#DEE2E6;" parent="fVuSezLWEeaFf3ZiZcyR-6" vertex="1">
                    <mxGeometry x="10" y="13" width="64" height="64" as="geometry"/>
                </mxCell>
                <mxCell id="fVuSezLWEeaFf3ZiZcyR-9" value="Primary" style="html=1;shadow=0;dashed=0;shape=mxgraph.bootstrap.rrect;rSize=5;strokeColor=none;strokeWidth=1;fillColor=#0085FC;fontColor=#FFFFFF;whiteSpace=wrap;align=left;verticalAlign=middle;spacingLeft=0;fontStyle=1;fontSize=14;spacing=5;" parent="fVuSezLWEeaFf3ZiZcyR-6" vertex="1">
                    <mxGeometry x="262" y="7" width="60" height="20" as="geometry"/>
                </mxCell>
                <mxCell id="fVuSezLWEeaFf3ZiZcyR-10" value="&lt;font style=&quot;font-size: 20px&quot;&gt;Media heading&lt;/font&gt;&lt;br&gt;Cras sit amet nibh libero, in gravida nulla. Nulla vel metus scelerisque ante sollicitudin. Cras purus odio, vestibulum in vulputate at, tempus viverra turpis. Fusce condimentum nunc ac nisi vulputate fringilla. Donec lacinia congue felis in faucibus." style="strokeColor=none;fillColor=none;fontColor=#000000;perimeter=none;whiteSpace=wrap;resizeWidth=1;align=left;spacing=2;fontSize=14;verticalAlign=top;html=1;" parent="fVuSezLWEeaFf3ZiZcyR-6" vertex="1">
                    <mxGeometry x="90" width="621" height="90" as="geometry"/>
                </mxCell>
                <mxCell id="fVuSezLWEeaFf3ZiZcyR-11" value="" style="group" parent="iBt6NRr1QlVm1zGjb4wk-1" vertex="1" connectable="0">
                    <mxGeometry x="58" y="860" width="711" height="90" as="geometry"/>
                </mxCell>
                <mxCell id="fVuSezLWEeaFf3ZiZcyR-12" value="" style="html=1;shadow=1;dashed=0;shape=mxgraph.bootstrap.rrect;rSize=5;strokeColor=#DFDFDF;html=1;whiteSpace=wrap;fillColor=#ffffff;fontColor=#000000;verticalAlign=top;align=left;spacing=20;fontSize=14;spacingLeft=170;container=0;" parent="fVuSezLWEeaFf3ZiZcyR-11" vertex="1">
                    <mxGeometry width="711" height="90" as="geometry"/>
                </mxCell>
                <mxCell id="fVuSezLWEeaFf3ZiZcyR-13" value="64x64" style="strokeColor=none;html=1;whiteSpace=wrap;fillColor=#868E96;fontColor=#DEE2E6;" parent="fVuSezLWEeaFf3ZiZcyR-11" vertex="1">
                    <mxGeometry x="10" y="13" width="64" height="64" as="geometry"/>
                </mxCell>
                <mxCell id="fVuSezLWEeaFf3ZiZcyR-14" value="Primary" style="html=1;shadow=0;dashed=0;shape=mxgraph.bootstrap.rrect;rSize=5;strokeColor=none;strokeWidth=1;fillColor=#0085FC;fontColor=#FFFFFF;whiteSpace=wrap;align=left;verticalAlign=middle;spacingLeft=0;fontStyle=1;fontSize=14;spacing=5;" parent="fVuSezLWEeaFf3ZiZcyR-11" vertex="1">
                    <mxGeometry x="262" y="7" width="60" height="20" as="geometry"/>
                </mxCell>
                <mxCell id="fVuSezLWEeaFf3ZiZcyR-15" value="&lt;font style=&quot;font-size: 20px&quot;&gt;Media heading&lt;/font&gt;&lt;br&gt;Cras sit amet nibh libero, in gravida nulla. Nulla vel metus scelerisque ante sollicitudin. Cras purus odio, vestibulum in vulputate at, tempus viverra turpis. Fusce condimentum nunc ac nisi vulputate fringilla. Donec lacinia congue felis in faucibus." style="strokeColor=none;fillColor=none;fontColor=#000000;perimeter=none;whiteSpace=wrap;resizeWidth=1;align=left;spacing=2;fontSize=14;verticalAlign=top;html=1;" parent="fVuSezLWEeaFf3ZiZcyR-11" vertex="1">
                    <mxGeometry x="90" width="621" height="90" as="geometry"/>
                </mxCell>
                <mxCell id="fVuSezLWEeaFf3ZiZcyR-16" value="" style="group" parent="iBt6NRr1QlVm1zGjb4wk-1" vertex="1" connectable="0">
                    <mxGeometry x="58" y="960" width="711" height="90" as="geometry"/>
                </mxCell>
                <mxCell id="fVuSezLWEeaFf3ZiZcyR-17" value="" style="html=1;shadow=1;dashed=0;shape=mxgraph.bootstrap.rrect;rSize=5;strokeColor=#DFDFDF;html=1;whiteSpace=wrap;fillColor=#ffffff;fontColor=#000000;verticalAlign=top;align=left;spacing=20;fontSize=14;spacingLeft=170;container=0;" parent="fVuSezLWEeaFf3ZiZcyR-16" vertex="1">
                    <mxGeometry width="711" height="90" as="geometry"/>
                </mxCell>
                <mxCell id="fVuSezLWEeaFf3ZiZcyR-18" value="64x64" style="strokeColor=none;html=1;whiteSpace=wrap;fillColor=#868E96;fontColor=#DEE2E6;" parent="fVuSezLWEeaFf3ZiZcyR-16" vertex="1">
                    <mxGeometry x="10" y="13" width="64" height="64" as="geometry"/>
                </mxCell>
                <mxCell id="fVuSezLWEeaFf3ZiZcyR-19" value="Primary" style="html=1;shadow=0;dashed=0;shape=mxgraph.bootstrap.rrect;rSize=5;strokeColor=none;strokeWidth=1;fillColor=#0085FC;fontColor=#FFFFFF;whiteSpace=wrap;align=left;verticalAlign=middle;spacingLeft=0;fontStyle=1;fontSize=14;spacing=5;" parent="fVuSezLWEeaFf3ZiZcyR-16" vertex="1">
                    <mxGeometry x="262" y="7" width="60" height="20" as="geometry"/>
                </mxCell>
                <mxCell id="fVuSezLWEeaFf3ZiZcyR-20" value="&lt;font style=&quot;font-size: 20px&quot;&gt;Media heading&lt;/font&gt;&lt;br&gt;Cras sit amet nibh libero, in gravida nulla. Nulla vel metus scelerisque ante sollicitudin. Cras purus odio, vestibulum in vulputate at, tempus viverra turpis. Fusce condimentum nunc ac nisi vulputate fringilla. Donec lacinia congue felis in faucibus." style="strokeColor=none;fillColor=none;fontColor=#000000;perimeter=none;whiteSpace=wrap;resizeWidth=1;align=left;spacing=2;fontSize=14;verticalAlign=top;html=1;" parent="fVuSezLWEeaFf3ZiZcyR-16" vertex="1">
                    <mxGeometry x="90" width="621" height="90" as="geometry"/>
                </mxCell>
                <mxCell id="fVuSezLWEeaFf3ZiZcyR-21" value="" style="group" parent="iBt6NRr1QlVm1zGjb4wk-1" vertex="1" connectable="0">
                    <mxGeometry x="58" y="1060" width="711" height="90" as="geometry"/>
                </mxCell>
                <mxCell id="fVuSezLWEeaFf3ZiZcyR-22" value="" style="html=1;shadow=1;dashed=0;shape=mxgraph.bootstrap.rrect;rSize=5;strokeColor=#DFDFDF;html=1;whiteSpace=wrap;fillColor=#ffffff;fontColor=#000000;verticalAlign=top;align=left;spacing=20;fontSize=14;spacingLeft=170;container=0;" parent="fVuSezLWEeaFf3ZiZcyR-21" vertex="1">
                    <mxGeometry width="711" height="90" as="geometry"/>
                </mxCell>
                <mxCell id="fVuSezLWEeaFf3ZiZcyR-23" value="64x64" style="strokeColor=none;html=1;whiteSpace=wrap;fillColor=#868E96;fontColor=#DEE2E6;" parent="fVuSezLWEeaFf3ZiZcyR-21" vertex="1">
                    <mxGeometry x="10" y="13" width="64" height="64" as="geometry"/>
                </mxCell>
                <mxCell id="fVuSezLWEeaFf3ZiZcyR-24" value="Primary" style="html=1;shadow=0;dashed=0;shape=mxgraph.bootstrap.rrect;rSize=5;strokeColor=none;strokeWidth=1;fillColor=#0085FC;fontColor=#FFFFFF;whiteSpace=wrap;align=left;verticalAlign=middle;spacingLeft=0;fontStyle=1;fontSize=14;spacing=5;" parent="fVuSezLWEeaFf3ZiZcyR-21" vertex="1">
                    <mxGeometry x="262" y="7" width="60" height="20" as="geometry"/>
                </mxCell>
                <mxCell id="fVuSezLWEeaFf3ZiZcyR-25" value="&lt;font style=&quot;font-size: 20px&quot;&gt;Media heading&lt;/font&gt;&lt;br&gt;Cras sit amet nibh libero, in gravida nulla. Nulla vel metus scelerisque ante sollicitudin. Cras purus odio, vestibulum in vulputate at, tempus viverra turpis. Fusce condimentum nunc ac nisi vulputate fringilla. Donec lacinia congue felis in faucibus." style="strokeColor=none;fillColor=none;fontColor=#000000;perimeter=none;whiteSpace=wrap;resizeWidth=1;align=left;spacing=2;fontSize=14;verticalAlign=top;html=1;" parent="fVuSezLWEeaFf3ZiZcyR-21" vertex="1">
                    <mxGeometry x="90" width="621" height="90" as="geometry"/>
                </mxCell>
            </root>
        </mxGraphModel>
    </diagram>
</mxfile>